<?xml version="1.0" encoding="utf-8"?>
<!-- Generator: Adobe Illustrator 21.1.0, SVG Export Plug-In . SVG Version: 6.00 Build 0)  -->
<svg version="1.1" xmlns="http://www.w3.org/2000/svg" xmlns:xlink="http://www.w3.org/1999/xlink" x="0px" y="0px"
	 viewBox="0 0 512 512" style="enable-background:new 0 0 512 512;" xml:space="preserve">
<path d="M257.4,6.3c137.7,0.8,249.1,113.4,248.3,250.9C504.8,394.8,392,506,254.3,505.2C116.6,504.3,5.2,391.7,6,254.2
	C6.8,116.6,119.6,5.5,257.4,6.3L257.4,6.3z M254.5,469.4c118,0.7,214.6-94.5,215.3-212.3c0.7-117.7-94.7-214.2-212.7-215
	C139.2,41.4,42.6,136.7,41.8,254.4C41.1,372.2,136.6,468.6,254.5,469.4L254.5,469.4z M254.5,469.4"/>
<path d="M309.6,321.9c2,2,3.5,4.3,4.5,6.9c1,2.6,1.5,5.2,1.5,7.9c0,2.6-0.6,5.2-1.5,7.7c-1,2.5-2.6,4.7-4.6,6.7
	c-4,4.1-8.9,6.2-14.5,6.1c-5.6,0-10.4-2.2-14.4-6.3L201,269.9c-2-1.7-3.4-3.9-4.3-6.5c-0.8-2.6-1.2-5.3-1-8.2c0.1-2.9,0.8-5.7,2-8.5
	c1.2-2.8,2.8-5.2,4.8-7.2l79.3-78.8c4-4.1,8.9-6.2,14.5-6.1c5.6,0.1,10.4,2.2,14.4,6.3c2,2,3.5,4.3,4.5,6.8c1,2.5,1.5,5.1,1.5,7.8
	c0,2.6-0.6,5.3-1.5,7.9c-1,2.6-2.6,4.9-4.6,6.9L245,255.7L309.6,321.9z M309.6,321.9"/>
</svg>
